<?xml version="1.0" encoding="UTF-8"?>
<svg id="_图层_2" data-name="图层 2" xmlns="http://www.w3.org/2000/svg" viewBox="0 0 810 613.96">
  <defs>
    <style>
      .cls-1 {
        stroke-width: 0px;
      }
    </style>
  </defs>
  <g id="_图层_1-2" data-name="图层 1">
    <g>
      <polygon class="cls-1" points="161 145.88 405 289.88 649.35 145.88 405.18 0 161 145.88"/>
      <polygon class="cls-1" points="157 156.88 157 276.77 399.5 408 399.5 298.72 157 156.88"/>
      <polygon class="cls-1" points="410 298.88 410 408 653 276.88 653 156.88 410 298.88"/>
      <polygon class="cls-1" points="663 162.88 663 209.53 731 244.88 405.18 422.64 78 244.88 147 209.88 147.56 162.88 5 235.88 405.18 446.13 806 234.88 663 162.88"/>
      <polygon class="cls-1" points="663 220.88 711 244.88 663 271.83 663 220.88"/>
      <polygon class="cls-1" points="99 244.88 148 271.88 148 220.77 99 244.88"/>
      <polygon class="cls-1" points="0 243.88 0 301.11 405.5 508.09 810 299.88 810 243.88 405 454.88 0 243.88"/>
      <polygon class="cls-1" points="157 390.64 399.5 515.23 399.5 613.96 157 482.21 157 390.64"/>
      <polygon class="cls-1" points="410 514.88 410 613.96 653 481.53 653 390.64 410 514.88"/>
    </g>
  </g>
</svg>